Coordinates
version=1
nRows=33
nColumns=24
inDegrees=yes

Units are S.I. units (second, meters, Newtons, ...)
If the header above contains a line with 'inDegrees', this indicates whether rotational values are in degrees (yes) or radians (no).

endheader
time	pelvis_tilt	pelvis_list	pelvis_rotation	pelvis_tx	pelvis_ty	pelvis_tz	hip_flexion_r	hip_adduction_r	hip_rotation_r	knee_angle_r	ankle_angle_r	subtalar_angle_r	mtp_angle_r	hip_flexion_l	hip_adduction_l	hip_rotation_l	knee_angle_l	ankle_angle_l	subtalar_angle_l	mtp_angle_l	lumbar_extension	lumbar_bending	lumbar_rotation
3.875000	11.412688	1.940195	-181.394972	0.294258	0.679288	-1.217871	56.568624	-24.659712	-18.382840	-78.007976	27.237247	10.447788	0.000000	57.934298	-31.126811	-14.578391	-77.558746	27.208941	14.898875	0.000000	-8.073370	2.052590	2.438738
3.880000	11.463060	1.969150	-181.415633	0.293782	0.683615	-1.217868	55.945597	-24.417891	-18.593901	-76.922435	26.924149	10.703423	0.000000	57.292407	-30.964270	-14.901400	-76.477651	26.902525	14.889271	0.000000	-7.878538	2.104609	2.408358
3.885000	11.449913	1.979520	-181.398884	0.293236	0.687981	-1.217864	55.280163	-24.249936	-18.918756	-75.912221	26.496037	10.682916	0.000000	56.613505	-30.773434	-15.214380	-75.485067	26.448374	14.799819	0.000000	-7.751184	2.125677	2.309760
3.890000	11.426926	1.955517	-181.409617	0.292734	0.692316	-1.217829	54.663151	-24.092363	-19.214953	-74.946502	25.938481	10.528817	0.000000	55.925072	-30.580863	-15.567267	-74.564859	25.864236	14.607075	0.000000	-7.640009	2.118318	2.255614
3.895000	11.441998	1.946523	-181.421354	0.292175	0.696646	-1.217772	54.022747	-23.891095	-19.447593	-73.865694	25.551809	10.580802	0.000000	55.227585	-30.377602	-15.917287	-73.487686	25.492766	14.548453	0.000000	-7.475680	2.123631	2.191143
3.900000	11.478555	1.956532	-181.440761	0.291630	0.700948	-1.217757	53.391536	-23.663095	-19.688862	-72.758836	25.152439	10.683368	0.000000	54.588275	-30.180493	-16.213169	-72.487091	24.993736	14.435738	0.000000	-7.291742	2.150147	2.170825
3.905000	11.493719	1.933112	-181.453106	0.291075	0.705207	-1.217732	52.795414	-23.489643	-19.977297	-71.751787	24.549679	10.545201	0.000000	53.897015	-29.948138	-16.555471	-71.423987	24.535892	14.288313	0.000000	-7.130817	2.146643	2.075008
3.910000	11.422861	1.874893	-181.431764	0.290520	0.709487	-1.217821	52.091598	-23.332043	-20.164731	-70.684785	24.222495	10.631729	0.000000	53.126551	-29.689606	-16.902497	-70.375992	24.036987	14.156484	0.000000	-7.062854	2.064488	2.004932
3.915000	11.440656	1.866067	-181.449039	0.289945	0.713744	-1.217801	51.475973	-23.124154	-20.415625	-69.619310	23.769202	10.607260	0.000000	52.457886	-29.466933	-17.208627	-69.319506	23.518212	13.959651	0.000000	-6.902628	2.064384	1.991053
3.920000	11.484882	1.880344	-181.504919	0.289335	0.717970	-1.217810	50.877153	-22.856388	-20.654726	-68.519515	23.268110	10.581396	0.000000	51.802389	-29.271772	-17.498001	-68.240814	23.011281	13.744120	0.000000	-6.714217	2.097669	1.951510
3.925000	11.414446	1.828834	-181.500578	0.288706	0.722210	-1.217860	50.166170	-22.675585	-20.851334	-67.429804	22.824438	10.612204	0.000000	51.014015	-29.005360	-17.842704	-67.160693	22.424966	13.649720	0.000000	-6.646843	2.047537	1.869546
3.930000	11.456486	1.820982	-181.543117	0.288100	0.726348	-1.217812	49.553330	-22.427610	-21.037310	-66.278639	22.367577	10.739511	0.000000	50.357275	-28.783482	-18.148996	-66.071550	21.928666	13.520824	0.000000	-6.457464	2.049270	1.862102
3.935000	11.441798	1.777911	-181.570244	0.287452	0.730497	-1.217853	48.908675	-22.212321	-21.202531	-65.165696	21.888849	10.804854	0.000000	49.628244	-28.526668	-18.473314	-64.979081	21.429517	13.375954	0.000000	-6.331582	2.021446	1.803025
3.940000	11.380630	1.729738	-181.577935	0.286890	0.734593	-1.217922	48.238776	-22.018701	-21.388989	-64.088883	21.420166	10.791944	0.000000	48.870362	-28.255752	-18.774843	-63.889950	20.990029	13.121824	0.000000	-6.263157	1.950920	1.789471
3.945000	11.374183	1.704951	-181.625864	0.286260	0.738669	-1.217929	47.615314	-21.791040	-21.586455	-62.991451	20.903708	10.839877	0.000000	48.152331	-28.013717	-19.090456	-62.774849	20.393084	13.100177	0.000000	-6.132888	1.927889	1.780546
3.950000	11.421188	1.682510	-181.706035	0.285648	0.742649	-1.217922	47.053919	-21.525158	-21.747778	-61.865998	20.367882	10.805787	0.000000	47.489319	-27.780982	-19.404651	-61.675530	19.883477	12.931422	0.000000	-5.942297	1.929002	1.834434
3.955000	11.346539	1.633128	-181.712793	0.284978	0.746629	-1.218031	46.339792	-21.333908	-21.934166	-60.742193	19.909523	10.861284	0.000000	46.719716	-27.513005	-19.723793	-60.584324	19.374199	12.805769	0.000000	-5.877406	1.860659	1.795461
3.960000	11.323840	1.608446	-181.733695	0.284334	0.750599	-1.218100	45.676518	-21.086507	-22.085078	-59.593750	19.419717	10.920236	0.000000	45.996227	-27.244629	-20.001270	-59.450041	18.886376	12.694549	0.000000	-5.769936	1.846750	1.748229
3.965000	11.380925	1.600069	-181.802625	0.283674	0.754469	-1.218056	45.105419	-20.817015	-22.264843	-58.430636	18.886565	10.890725	0.000000	45.354584	-27.009509	-20.297697	-58.334755	18.369970	12.518383	0.000000	-5.567131	1.868428	1.768421
3.970000	11.308459	1.561478	-181.811441	0.283042	0.758300	-1.218117	44.422531	-20.612137	-22.438083	-57.339397	18.406019	10.896687	0.000000	44.605736	-26.730215	-20.562112	-57.250957	17.839399	12.379448	0.000000	-5.510135	1.813678	1.755530
3.975000	11.361493	1.563676	-181.903895	0.282349	0.762045	-1.218046	43.853749	-20.323039	-22.607766	-56.187882	17.860327	10.900269	0.000000	43.952189	-26.513876	-20.871605	-56.116000	17.321897	12.215498	0.000000	-5.309290	1.847997	1.853301
3.980000	11.300972	1.608620	-181.966444	0.281527	0.765864	-1.218263	43.116965	-19.997832	-22.837902	-55.020788	17.317411	10.933265	0.000000	43.195333	-26.348915	-21.141254	-54.990896	16.819419	12.103013	0.000000	-5.218022	1.904219	1.877670
3.985000	11.259547	1.490387	-181.964329	0.280986	0.769419	-1.218236	42.503541	-19.867123	-22.955206	-53.935589	16.818555	10.906151	0.000000	42.463002	-25.963446	-21.424539	-53.857628	16.300039	11.950843	0.000000	-5.138984	1.780384	1.835994
3.990000	11.274010	1.464333	-181.996940	0.280314	0.772957	-1.218232	41.894497	-19.629284	-23.107553	-52.789424	16.292759	10.956524	0.000000	41.807162	-25.698361	-21.697321	-52.747207	15.771753	11.826685	0.000000	-4.980501	1.766493	1.850792
3.995000	11.306079	1.478808	-182.064006	0.279574	0.776498	-1.218169	41.288176	-19.329407	-23.274301	-51.610813	15.737994	10.922544	0.000000	41.153478	-25.470955	-21.960531	-51.608252	15.256683	11.678839	0.000000	-4.794929	1.829625	1.893102
4.000000	11.324088	1.466110	-182.096204	0.278879	0.779911	-1.218147	40.697238	-19.082831	-23.455006	-50.495379	15.200028	10.860299	0.000000	40.510114	-25.210822	-22.215262	-50.492415	14.733861	11.529554	0.000000	-4.636421	1.830030	1.913969
4.005000	11.249299	1.438394	-182.099489	0.278146	0.783229	-1.218135	40.055369	-18.918491	-23.836325	-49.525565	14.562540	10.481867	0.000000	39.792647	-24.931884	-22.455057	-49.415699	14.238254	11.400154	0.000000	-4.589635	1.781415	1.972816
4.010000	11.256590	1.405930	-182.120603	0.277455	0.786537	-1.218239	39.451047	-18.665203	-23.960029	-48.384259	14.035140	10.407530	0.000000	39.145973	-24.663588	-22.716571	-48.306474	13.707175	11.327733	0.000000	-4.428834	1.767189	1.908561
4.015000	11.259158	1.368790	-182.139505	0.276713	0.789694	-1.218215	38.841930	-18.450063	-24.117135	-47.258229	13.520497	10.435200	0.000000	38.498770	-24.380693	-22.975843	-47.212448	13.208056	11.227407	0.000000	-4.271665	1.749973	1.899696
4.020000	11.294021	1.386586	-182.195417	0.275905	0.792796	-1.218110	38.260511	-18.158532	-24.263787	-46.111475	12.978340	10.421509	0.000000	37.889239	-24.156028	-23.209662	-46.133049	12.725609	11.086506	0.000000	-4.077949	1.814520	1.939744
4.025000	11.332899	1.396028	-182.229513	0.275195	0.795791	-1.218031	37.709556	-17.896344	-24.422666	-45.014572	12.450369	10.383078	0.000000	37.305651	-23.901721	-23.392855	-45.048180	12.210004	10.929310	0.000000	-3.889723	1.863844	1.944363
4.030000	11.331302	1.409381	-182.260533	0.274450	0.798754	-1.218013	37.110679	-17.616873	-24.557773	-43.906565	11.922552	10.350063	0.000000	36.699617	-23.677515	-23.589782	-44.015715	11.711354	10.850546	0.000000	-3.747910	1.896045	1.968349
4.035000	11.321461	1.391732	-182.257346	0.273658	0.801487	-1.217913	36.516649	-17.410804	-24.709889	-42.842585	11.444928	10.356587	0.000000	36.089027	-23.395339	-23.794425	-42.965690	11.253892	10.727483	0.000000	-3.607748	1.892088	1.980300
